<?xml version="1.0" encoding="utf-8"?>
<!-- Generator: Adobe Illustrator 30.3.0, SVG Export Plug-In . SVG Version: 9.03 Build 0)  -->
<svg version="1.0" id="Layer_1" xmlns="http://www.w3.org/2000/svg" xmlns:xlink="http://www.w3.org/1999/xlink" x="0px" y="0px"
	 viewBox="0 0 1080 1080" style="enable-background:new 0 0 1080 1080;" xml:space="preserve">
<style type="text/css">
	.st0{fill:#FFFFFF;}
	.st1{fill:#432A58;}
	.st2{fill:url(#SVGID_1_);}
	.st3{fill:url(#SVGID_00000072990902696798299910000008374763065129717128_);}
</style>
<rect class="st0" width="1080" height="1080"/>
<g>
	<g>
		<path d="M426.47,490.23c7.16,0,13.84,1.79,20.02,5.38c5.93,3.58,10.62,8.34,14.08,14.27c3.58,6.18,5.37,12.79,5.37,19.83
			c0,7.17-1.79,13.84-5.37,20.02c-3.46,6.06-8.15,10.81-14.08,14.27c-6.18,3.58-12.85,5.38-20.02,5.38h-28.91v46.89h-16.31V490.23
			H426.47z M426.28,553.06c6.42,0,11.92-2.28,16.5-6.86c4.57-4.57,6.86-10.01,6.86-16.31c0-6.42-2.29-11.92-6.86-16.5
			c-4.57-4.57-10.07-6.86-16.5-6.86h-28.73v46.52H426.28z"/>
		<path d="M486.33,616.45v-45.59c0-7.29,1.85-14.15,5.56-20.57c3.58-6.05,8.46-10.87,14.64-14.46c6.3-3.71,13.1-5.56,20.39-5.56
			c7.41,0,14.27,1.85,20.57,5.56c6.18,3.58,11.06,8.4,14.64,14.46c3.71,6.43,5.56,13.28,5.56,20.57h-16.31
			c0-6.67-2.41-12.42-7.23-17.24c-4.7-4.69-10.44-7.04-17.24-7.04c-6.67,0-12.36,2.35-17.05,7.04c-4.82,4.82-7.23,10.56-7.23,17.24
			v45.59H486.33z"/>
		<path d="M595.87,511.73c-2.59-2.59-3.89-5.75-3.89-9.45c0-3.83,1.3-7.04,3.89-9.64c2.72-2.72,5.93-4.08,9.64-4.08
			c3.71,0,6.92,1.36,9.64,4.08c2.59,2.59,3.89,5.81,3.89,9.64c0,3.71-1.3,6.86-3.89,9.45c-2.72,2.72-5.93,4.08-9.64,4.08
			C601.8,515.81,598.58,514.45,595.87,511.73z M613.66,533.05v83.4h-16.31v-83.4H613.66z"/>
		<path d="M738.02,616.45v-55.41c0-4.08-1.48-7.54-4.45-10.38c-2.84-2.97-6.3-4.45-10.38-4.45c-4.08,0-7.6,1.48-10.56,4.45
			c-2.84,2.84-4.26,6.3-4.26,10.38v55.41h-16.31v-55.41c0-4.08-1.48-7.54-4.45-10.38c-2.84-2.97-6.3-4.45-10.38-4.45
			s-7.54,1.42-10.38,4.26c-2.97,2.84-4.45,6.3-4.45,10.38v55.6h-16.31v-55.23c0-8.53,3.03-15.81,9.08-21.87
			c6.05-6.05,13.4-9.08,22.05-9.08c8.77,0,16.43,3.4,22.98,10.19c2.97-3.33,6.49-5.87,10.56-7.6c3.95-1.73,8.09-2.59,12.42-2.59
			c8.52,0,15.81,3.03,21.87,9.08c6.18,6.06,9.27,13.41,9.27,22.06v55.04H738.02z"/>
		<path d="M828.46,602.73c8.4,0,15.63-3.4,21.68-10.19l14.09,8.34c-4.45,6.06-9.82,10.69-16.12,13.9
			c-5.93,2.84-12.23,4.26-18.9,4.26c-7.78,0-15.08-1.85-21.87-5.56c-7.04-3.71-12.6-8.83-16.68-15.38
			c-4.45-7.04-6.67-14.83-6.67-23.35c0-9.02,2.22-17.05,6.67-24.09c4.08-6.42,9.7-11.43,16.86-15.01
			c6.79-3.58,14.02-5.38,21.69-5.38c9.14,0,17.36,2.47,24.65,7.41c7.91,5.31,13.47,12.97,16.68,22.98l-60.79,35.03
			c5.31,4.7,11.49,7.04,18.53,7.04H828.46z M801.22,581.97l20.02-11.67l0.37-0.19l0.19-0.19l0.93-0.56l0.37-0.19l0.74-0.37
			l3.89-2.22l0.19-0.19h0.19l0.19-0.19h0.19l0.56-0.37l0.56-0.37l0.74-0.37l3.71-2.22h0.19l0.19-0.19l0.19-0.19h0.19l0.19-0.19h0.19
			l0.37-0.19l0.19-0.19l0.37-0.19l0.37-0.19l0.19-0.19l0.37-0.19l3.15-1.85h0.19l0.37-0.19l4.63-2.78l1.85-1.11l0.74-0.37l0.37-0.19
			c-5.56-5.56-12.05-8.34-19.46-8.34c-7.66,0-14.27,2.66-19.83,7.97c-5.93,5.44-8.9,12.05-8.9,19.83
			C800.1,576.78,800.48,579.38,801.22,581.97z"/>
		<g>
			<path d="M788.8,656.94c-1.32,0.5-2.69,0.75-4.11,0.75c-2.05,0-3.95-0.5-5.71-1.51c-1.7-1.01-3.05-2.36-4.06-4.06
				c-1.04-1.76-1.56-3.66-1.56-5.71c0-2.08,0.52-4,1.56-5.76c1.01-1.7,2.36-3.05,4.06-4.06c1.76-1.01,3.67-1.51,5.71-1.51
				c1.42,0,2.79,0.25,4.11,0.75c1.35,0.54,2.58,1.31,3.68,2.31l-3.16,2.74c-1.35-1.1-2.9-1.65-4.63-1.65
				c-2.01,0-3.73,0.71-5.15,2.12c-1.35,1.42-2.03,3.08-2.03,5c0,1.98,0.69,3.68,2.08,5.1c1.42,1.39,3.12,2.08,5.1,2.08
				c1.73,0,3.27-0.55,4.63-1.65l3.16,2.74C791.37,655.63,790.15,656.4,788.8,656.94z"/>
			<path d="M828.73,638.39c2.14,2.14,3.26,4.81,3.35,8.02v10.62h-4.15v-1.89c-2.11,1.7-4.47,2.55-7.08,2.55
				c-1.98,0-3.84-0.47-5.57-1.42c-1.76-0.98-3.16-2.3-4.2-3.97c-1.1-1.79-1.65-3.76-1.65-5.9c0.09-3.21,1.2-5.88,3.3-8.02
				c2.14-2.14,4.82-3.24,8.03-3.3C823.96,635.15,826.62,636.25,828.73,638.39z M825.94,641.46c-1.39-1.48-3.12-2.22-5.19-2.22
				c-1.98,0-3.68,0.69-5.1,2.08c-1.39,1.42-2.08,3.12-2.08,5.1c0,2.08,0.74,3.81,2.22,5.19c1.42,1.29,3.09,1.94,5,1.94
				c1.95,0,3.62-0.69,5-2.08c1.42-1.39,2.12-3.05,2.12-5C827.93,644.54,827.27,642.87,825.94,641.46z"/>
			<path d="M852.95,657.03v-11.61c0-1.86,0.47-3.6,1.42-5.24c0.91-1.54,2.16-2.77,3.73-3.68c1.61-0.94,3.34-1.42,5.19-1.42
				c1.89,0,3.63,0.47,5.24,1.42c1.57,0.91,2.82,2.14,3.73,3.68c0.94,1.64,1.42,3.38,1.42,5.24h-4.16c0-1.7-0.61-3.16-1.84-4.39
				c-1.2-1.2-2.66-1.79-4.39-1.79c-1.7,0-3.15,0.6-4.34,1.79c-1.23,1.23-1.84,2.69-1.84,4.39v11.61H852.95z"/>
			<path d="M893.26,648.06c-0.09-0.53-0.14-1.09-0.14-1.65c0-2.3,0.57-4.34,1.7-6.14c1.04-1.64,2.47-2.91,4.29-3.82
				c1.73-0.91,3.57-1.37,5.52-1.37c2.33,0,4.42,0.63,6.28,1.89c2.01,1.35,3.43,3.3,4.25,5.85l-11.75,6.7
				c-0.38-1.54-1.13-2.71-2.27-3.49l8.36-4.72c-1.42-1.42-3.07-2.12-4.96-2.12c-1.76,0-3.34,0.57-4.72,1.7
				c-1.42,1.17-2.25,2.63-2.5,4.39C895.49,645.59,894.14,646.52,893.26,648.06z M895.62,653.4c-0.72-0.69-1.09-1.54-1.09-2.55
				c0-1.01,0.36-1.87,1.09-2.6c0.69-0.72,1.54-1.09,2.55-1.09c1.01,0,1.87,0.36,2.6,1.09c0.69,0.72,1.04,1.59,1.04,2.6
				c0,1.01-0.35,1.86-1.04,2.55c-0.72,0.72-1.59,1.09-2.6,1.09C897.16,654.48,896.31,654.12,895.62,653.4z M903.17,653.45
				c0.41,0.06,0.82,0.09,1.23,0.09h0.05c2.14,0,3.98-0.87,5.52-2.6l3.59,2.12c-1.13,1.54-2.5,2.72-4.11,3.54
				c-1.51,0.72-3.12,1.09-4.82,1.09c-1.89,0-3.7-0.44-5.43-1.32C901,656,902.32,655.02,903.17,653.45z"/>
		</g>
		<g>
			<path d="M911.31,606.07c-8.28-8.4-12.6-18.84-12.97-31.32v-41.7h16.31v41.7c0.12,7.66,2.9,14.21,8.34,19.65
				c5.44,5.44,12.05,8.15,19.83,8.15c7.66,0,14.21-2.72,19.64-8.15c5.56-5.44,8.4-11.98,8.53-19.65v-41.7h16.31v41.7
				c-0.37,12.48-4.76,22.92-13.16,31.32c-8.28,8.4-18.72,12.72-31.32,12.97C930.21,618.79,919.71,614.47,911.31,606.07z"/>
			<path class="st1" d="M982.29,634.61c-3.71,6.67-8.71,11.92-15.01,15.75c-7.17,4.45-15.32,6.67-24.46,6.67h-12.97v-16.31h12.97
				c6.92,0,12.79-1.73,17.61-5.19c3.58-2.72,6.36-6.3,8.34-10.75c1.48-3.21,2.22-6.06,2.22-8.53h16.31
				C987.29,622.44,985.63,628.55,982.29,634.61z"/>
		</g>
	</g>
	<g>
		<linearGradient id="SVGID_1_" gradientUnits="userSpaceOnUse" x1="92.7064" y1="569.1862" x2="344.8367" y2="569.1862">
			<stop  offset="0" style="stop-color:#8C9CDC"/>
			<stop  offset="0.138" style="stop-color:#8794D3"/>
			<stop  offset="0.3674" style="stop-color:#797EB9"/>
			<stop  offset="0.66" style="stop-color:#625A90"/>
			<stop  offset="0.9944" style="stop-color:#432A58"/>
		</linearGradient>
		<path class="st2" d="M289.86,451.87c-11.21-4.67-23.58-7-37.12-7c-16.34,0-30.82,3.04-43.42,9.1
			c-12.61,6.07-23.29,14.3-32.04,24.69c-8.75,10.39-15.41,22.41-19.96,36.07c-4.55,13.66-6.83,28.19-6.83,43.6v14.36
			c-5.14-7.47-9.05-15.76-11.73-24.86c-2.69-9.11-4.03-18.91-4.03-29.42c0-8.63,1.05-17.51,3.15-26.61s5.72-17.39,10.86-24.86
			l-36.07-22.06c-6.54,10.5-11.5,22.12-14.88,34.84c-3.39,12.73-5.08,25.62-5.08,38.69c0,24.05,5.13,45.76,15.41,65.14
			c10.27,19.38,24.39,35.02,42.37,46.92v63.03h42.02v-45.17c9.8,2.1,19.96,3.15,30.47,3.15c17.27,0,33.32-2.57,48.15-7.7
			c14.82-5.13,27.67-12.61,38.52-22.41c10.86-9.8,19.43-21.76,25.74-35.89c4.15-9.29,6.9-19.38,8.32-30.24
			c0.67-4.33,1.07-8.74,1.13-13.24v-88.8l-30.71,13.61C307.02,460.69,298.97,455.67,289.86,451.87z M192.16,604.55v-35.02
			c0-10.51,0.88-20.72,2.63-30.64c1.75-9.92,4.9-18.74,9.46-26.44c4.55-7.7,10.73-13.89,18.56-18.56c7.82-4.67,17.8-7,29.94-7
			c15.41,0,27.61,4.61,36.59,13.83c8.99,9.22,13.48,21.54,13.48,36.94c0,11.91-2.05,22.36-6.13,31.34
			c-4.09,8.99-9.69,16.46-16.81,22.41c-7.12,5.95-15.58,10.45-25.39,13.48c-9.81,3.04-20.31,4.55-31.51,4.55
			C212.23,609.46,201.96,607.83,192.16,604.55z"/>
		
			<linearGradient id="SVGID_00000101816585504668874860000000576300358576866463_" gradientUnits="userSpaceOnUse" x1="284.0614" y1="416.8876" x2="344.8367" y2="416.8876">
			<stop  offset="0" style="stop-color:#8C9CDC"/>
			<stop  offset="0.138" style="stop-color:#8794D3"/>
			<stop  offset="0.3674" style="stop-color:#797EB9"/>
			<stop  offset="0.66" style="stop-color:#625A90"/>
			<stop  offset="0.9944" style="stop-color:#432A58"/>
		</linearGradient>
		<path style="fill:url(#SVGID_00000101816585504668874860000000576300358576866463_);" d="M314.45,447.28
			c8.42,0,15.53-2.89,21.31-8.68c6.06-6.05,9.08-13.28,9.08-21.71c0-8.42-3.02-15.52-9.08-21.31c-5.78-6.05-12.89-9.08-21.31-9.08
			c-8.42,0-15.65,3.03-21.71,9.08c-5.78,5.79-8.68,12.89-8.68,21.31c0,8.42,2.9,15.66,8.68,21.71
			C298.8,444.38,306.03,447.28,314.45,447.28z"/>
	</g>
</g>
</svg>
